<svg xmlns="http://www.w3.org/2000/svg" width="320" height="240" viewBox="0 0 320 240">
<rect width="320" height="240" fill="#f2f3f5"/>
<rect x="272" y="174" width="40" height="30" fill="rgb(242,250,115)" opacity="0.55"/>
<rect x="156" y="139" width="40" height="30" fill="rgb(189,41,242)" opacity="0.55"/>
<rect x="201" y="187" width="40" height="30" fill="rgb(202,100,234)" opacity="0.55"/>
<rect x="201" y="88" width="40" height="30" fill="rgb(174,36,103)" opacity="0.55"/>
<rect x="46" y="0" width="40" height="30" fill="rgb(186,215,104)" opacity="0.55"/>
<rect x="122" y="54" width="40" height="30" fill="rgb(133,72,151)" opacity="0.55"/>
<rect x="276" y="49" width="40" height="30" fill="rgb(45,134,39)" opacity="0.55"/>
<rect x="259" y="165" width="40" height="30" fill="rgb(91,123,36)" opacity="0.55"/>
<rect x="11" y="192" width="40" height="30" fill="rgb(73,222,247)" opacity="0.55"/>
<rect x="63" y="150" width="40" height="30" fill="rgb(203,103,7)" opacity="0.55"/>
<rect x="57" y="209" width="40" height="30" fill="rgb(162,154,54)" opacity="0.55"/>
<rect x="50" y="158" width="40" height="30" fill="rgb(176,104,149)" opacity="0.55"/>
<rect x="265" y="39" width="40" height="30" fill="rgb(89,187,195)" opacity="0.55"/>
<rect x="57" y="106" width="40" height="30" fill="rgb(133,164,142)" opacity="0.55"/>
<rect x="205" y="154" width="40" height="30" fill="rgb(104,97,18)" opacity="0.55"/>
<rect x="246" y="195" width="40" height="30" fill="rgb(84,43,118)" opacity="0.55"/>
<rect x="205" y="160" width="40" height="30" fill="rgb(84,17,102)" opacity="0.55"/>
<rect x="143" y="49" width="40" height="30" fill="rgb(8,95,89)" opacity="0.55"/>
<rect x="81" y="156" width="40" height="30" fill="rgb(180,111,165)" opacity="0.55"/>
<rect x="123" y="113" width="40" height="30" fill="rgb(42,195,227)" opacity="0.55"/>
<rect x="195" y="41" width="40" height="30" fill="rgb(166,3,116)" opacity="0.55"/>
<rect x="78" y="43" width="40" height="30" fill="rgb(229,145,237)" opacity="0.55"/>
<rect x="255" y="203" width="40" height="30" fill="rgb(113,66,147)" opacity="0.55"/>
<rect x="1" y="72" width="40" height="30" fill="rgb(5,255,103)" opacity="0.55"/>
<rect x="9" y="190" width="40" height="30" fill="rgb(200,45,25)" opacity="0.55"/>
<rect x="25" y="62" width="40" height="30" fill="rgb(32,241,138)" opacity="0.55"/>
<rect x="243" y="123" width="40" height="30" fill="rgb(204,185,173)" opacity="0.55"/>
<rect x="97" y="143" width="40" height="30" fill="rgb(143,165,247)" opacity="0.55"/>
<rect x="249" y="118" width="40" height="30" fill="rgb(158,173,148)" opacity="0.55"/>
<rect x="90" y="151" width="40" height="30" fill="rgb(161,254,186)" opacity="0.55"/>
<rect x="121" y="53" width="40" height="30" fill="rgb(199,214,39)" opacity="0.55"/>
<rect x="23" y="43" width="40" height="30" fill="rgb(50,229,114)" opacity="0.55"/>
<rect x="270" y="122" width="40" height="30" fill="rgb(180,116,104)" opacity="0.55"/>
<rect x="120" y="3" width="40" height="30" fill="rgb(143,224,208)" opacity="0.55"/>
<rect x="7" y="139" width="40" height="30" fill="rgb(187,115,15)" opacity="0.55"/>
<rect x="172" y="83" width="40" height="30" fill="rgb(255,7,127)" opacity="0.55"/>
<rect x="156" y="20" width="40" height="30" fill="rgb(184,115,221)" opacity="0.55"/>
<rect x="149" y="179" width="40" height="30" fill="rgb(87,59,127)" opacity="0.55"/>
<rect x="240" y="49" width="40" height="30" fill="rgb(254,104,140)" opacity="0.55"/>
<rect x="27" y="78" width="40" height="30" fill="rgb(12,24,87)" opacity="0.55"/>
<rect x="229" y="0" width="40" height="30" fill="rgb(138,184,64)" opacity="0.55"/>
<rect x="131" y="107" width="40" height="30" fill="rgb(130,37,107)" opacity="0.55"/>
<rect x="15" y="143" width="40" height="30" fill="rgb(123,176,13)" opacity="0.55"/>
<rect x="70" y="47" width="40" height="30" fill="rgb(151,220,31)" opacity="0.55"/>
<rect x="109" y="198" width="40" height="30" fill="rgb(137,54,236)" opacity="0.55"/>
<rect x="193" y="139" width="40" height="30" fill="rgb(180,181,204)" opacity="0.55"/>
<rect x="64" y="126" width="40" height="30" fill="rgb(12,90,89)" opacity="0.55"/>
<rect x="221" y="174" width="40" height="30" fill="rgb(168,72,50)" opacity="0.55"/>
<rect x="30" y="141" width="40" height="30" fill="rgb(237,32,156)" opacity="0.55"/>
<rect x="50" y="52" width="40" height="30" fill="rgb(9,24,152)" opacity="0.55"/>
<rect x="5" y="178" width="40" height="30" fill="rgb(115,90,248)" opacity="0.55"/>
<rect x="207" y="96" width="40" height="30" fill="rgb(48,157,0)" opacity="0.55"/>
<rect x="29" y="142" width="40" height="30" fill="rgb(158,108,128)" opacity="0.55"/>
<rect x="137" y="91" width="40" height="30" fill="rgb(136,155,15)" opacity="0.55"/>
<rect x="242" y="31" width="40" height="30" fill="rgb(205,44,21)" opacity="0.55"/>
<rect x="25" y="36" width="40" height="30" fill="rgb(211,74,49)" opacity="0.55"/>
<rect x="210" y="139" width="40" height="30" fill="rgb(19,113,96)" opacity="0.55"/>
<rect x="242" y="94" width="40" height="30" fill="rgb(24,21,249)" opacity="0.55"/>
<rect x="198" y="179" width="40" height="30" fill="rgb(209,251,55)" opacity="0.55"/>
<rect x="114" y="51" width="40" height="30" fill="rgb(141,54,69)" opacity="0.55"/>
<rect x="184" y="40" width="40" height="30" fill="rgb(43,214,34)" opacity="0.55"/>
<rect x="27" y="15" width="40" height="30" fill="rgb(36,72,254)" opacity="0.55"/>
<rect x="110" y="89" width="40" height="30" fill="rgb(121,206,233)" opacity="0.55"/>
<rect x="221" y="64" width="40" height="30" fill="rgb(208,237,183)" opacity="0.55"/>
<rect x="101" y="182" width="40" height="30" fill="rgb(208,201,132)" opacity="0.55"/>
<rect x="156" y="63" width="40" height="30" fill="rgb(231,164,101)" opacity="0.55"/>
<rect x="34" y="155" width="40" height="30" fill="rgb(14,225,245)" opacity="0.55"/>
<rect x="278" y="114" width="40" height="30" fill="rgb(186,168,151)" opacity="0.55"/>
<rect x="265" y="142" width="40" height="30" fill="rgb(95,145,184)" opacity="0.55"/>
<rect x="191" y="175" width="40" height="30" fill="rgb(156,251,95)" opacity="0.55"/>
<rect x="237" y="49" width="40" height="30" fill="rgb(232,50,147)" opacity="0.55"/>
<rect x="242" y="135" width="40" height="30" fill="rgb(188,248,144)" opacity="0.55"/>
<rect x="151" y="67" width="40" height="30" fill="rgb(239,11,191)" opacity="0.55"/>
<rect x="170" y="50" width="40" height="30" fill="rgb(248,53,33)" opacity="0.55"/>
<rect x="178" y="154" width="40" height="30" fill="rgb(235,95,148)" opacity="0.55"/>
<rect x="108" y="139" width="40" height="30" fill="rgb(24,136,161)" opacity="0.55"/>
<rect x="258" y="43" width="40" height="30" fill="rgb(198,79,215)" opacity="0.55"/>
<rect x="154" y="142" width="40" height="30" fill="rgb(37,84,195)" opacity="0.55"/>
<rect x="141" y="191" width="40" height="30" fill="rgb(35,195,8)" opacity="0.55"/>
<rect x="223" y="194" width="40" height="30" fill="rgb(61,181,55)" opacity="0.55"/>
<rect x="78" y="85" width="40" height="30" fill="rgb(9,82,245)" opacity="0.55"/>
<rect x="103" y="37" width="40" height="30" fill="rgb(152,221,135)" opacity="0.55"/>
<rect x="244" y="96" width="40" height="30" fill="rgb(159,27,68)" opacity="0.55"/>
<rect x="137" y="32" width="40" height="30" fill="rgb(68,131,30)" opacity="0.55"/>
<rect x="234" y="161" width="40" height="30" fill="rgb(173,7,89)" opacity="0.55"/>
<rect x="258" y="50" width="40" height="30" fill="rgb(163,239,84)" opacity="0.55"/>
<rect x="133" y="78" width="40" height="30" fill="rgb(171,92,228)" opacity="0.55"/>
<rect x="118" y="72" width="40" height="30" fill="rgb(141,226,41)" opacity="0.55"/>
<rect x="233" y="155" width="40" height="30" fill="rgb(250,30,80)" opacity="0.55"/>
<rect x="174" y="147" width="40" height="30" fill="rgb(81,6,242)" opacity="0.55"/>
<rect x="80" y="87" width="40" height="30" fill="rgb(19,36,106)" opacity="0.55"/>
<rect x="95" y="110" width="40" height="30" fill="rgb(112,226,123)" opacity="0.55"/>
<rect x="110" y="139" width="40" height="30" fill="rgb(55,210,121)" opacity="0.55"/>
<rect x="188" y="4" width="40" height="30" fill="rgb(2,15,157)" opacity="0.55"/>
<rect x="78" y="161" width="40" height="30" fill="rgb(79,148,102)" opacity="0.55"/>
<rect x="179" y="191" width="40" height="30" fill="rgb(15,98,246)" opacity="0.55"/>
<rect x="2" y="106" width="40" height="30" fill="rgb(113,197,241)" opacity="0.55"/>
<rect x="163" y="146" width="40" height="30" fill="rgb(11,101,118)" opacity="0.55"/>
<rect x="60" y="63" width="40" height="30" fill="rgb(226,237,108)" opacity="0.55"/>
<rect x="280" y="200" width="40" height="30" fill="rgb(200,113,235)" opacity="0.55"/>
<rect x="78" y="3" width="40" height="30" fill="rgb(214,68,123)" opacity="0.55"/>
<rect x="96" y="91" width="40" height="30" fill="rgb(42,188,132)" opacity="0.55"/>
<rect x="178" y="189" width="40" height="30" fill="rgb(142,87,72)" opacity="0.55"/>
<rect x="41" y="148" width="40" height="30" fill="rgb(137,86,103)" opacity="0.55"/>
<rect x="218" y="19" width="40" height="30" fill="rgb(239,82,83)" opacity="0.55"/>
<rect x="217" y="42" width="40" height="30" fill="rgb(31,211,7)" opacity="0.55"/>
<rect x="53" y="123" width="40" height="30" fill="rgb(31,55,204)" opacity="0.55"/>
<rect x="74" y="37" width="40" height="30" fill="rgb(249,199,45)" opacity="0.55"/>
<rect x="77" y="113" width="40" height="30" fill="rgb(210,24,54)" opacity="0.55"/>
<rect x="10" y="8" width="40" height="30" fill="rgb(30,72,194)" opacity="0.55"/>
<rect x="185" y="137" width="40" height="30" fill="rgb(73,41,111)" opacity="0.55"/>
<rect x="0" y="172" width="40" height="30" fill="rgb(30,174,175)" opacity="0.55"/>
<rect x="279" y="171" width="40" height="30" fill="rgb(16,80,173)" opacity="0.55"/>
<rect x="140" y="171" width="40" height="30" fill="rgb(151,203,57)" opacity="0.55"/>
<rect x="237" y="50" width="40" height="30" fill="rgb(119,173,162)" opacity="0.55"/>
<rect x="117" y="74" width="40" height="30" fill="rgb(51,246,198)" opacity="0.55"/>
<rect x="0" y="11" width="40" height="30" fill="rgb(96,110,251)" opacity="0.55"/>
<rect x="121" y="102" width="40" height="30" fill="rgb(188,74,108)" opacity="0.55"/>
<rect x="61" y="56" width="40" height="30" fill="rgb(12,180,125)" opacity="0.55"/>
<rect x="247" y="7" width="40" height="30" fill="rgb(190,210,139)" opacity="0.55"/>
<rect x="145" y="160" width="40" height="30" fill="rgb(119,198,225)" opacity="0.55"/>
<rect x="182" y="143" width="40" height="30" fill="rgb(54,25,103)" opacity="0.55"/>
<rect x="188" y="63" width="40" height="30" fill="rgb(254,27,164)" opacity="0.55"/>
<rect x="35" y="34" width="40" height="30" fill="rgb(97,43,229)" opacity="0.55"/>
<rect x="74" y="93" width="40" height="30" fill="rgb(125,244,42)" opacity="0.55"/>
<rect x="259" y="185" width="40" height="30" fill="rgb(151,245,239)" opacity="0.55"/>
<rect x="26" y="27" width="40" height="30" fill="rgb(129,120,113)" opacity="0.55"/>
<rect x="10" y="132" width="40" height="30" fill="rgb(92,223,164)" opacity="0.55"/>
<rect x="118" y="108" width="40" height="30" fill="rgb(89,52,241)" opacity="0.55"/>
<rect x="155" y="43" width="40" height="30" fill="rgb(249,246,8)" opacity="0.55"/>
<rect x="277" y="117" width="40" height="30" fill="rgb(187,176,51)" opacity="0.55"/>
<rect x="204" y="63" width="40" height="30" fill="rgb(94,146,115)" opacity="0.55"/>
<rect x="268" y="85" width="40" height="30" fill="rgb(174,131,59)" opacity="0.55"/>
<rect x="44" y="146" width="40" height="30" fill="rgb(171,27,151)" opacity="0.55"/>
<rect x="157" y="178" width="40" height="30" fill="rgb(78,27,155)" opacity="0.55"/>
<rect x="241" y="36" width="40" height="30" fill="rgb(187,6,92)" opacity="0.55"/>
<rect x="135" y="163" width="40" height="30" fill="rgb(55,135,78)" opacity="0.55"/>
<rect x="248" y="101" width="40" height="30" fill="rgb(106,27,63)" opacity="0.55"/>
<rect x="280" y="164" width="40" height="30" fill="rgb(96,55,95)" opacity="0.55"/>
<rect x="14" y="37" width="40" height="30" fill="rgb(180,201,170)" opacity="0.55"/>
<rect x="24" y="152" width="40" height="30" fill="rgb(221,155,106)" opacity="0.55"/>
<rect x="132" y="137" width="40" height="30" fill="rgb(149,66,42)" opacity="0.55"/>
<rect x="192" y="22" width="40" height="30" fill="rgb(171,77,140)" opacity="0.55"/>
<rect x="242" y="69" width="40" height="30" fill="rgb(48,162,167)" opacity="0.55"/>
<rect x="161" y="36" width="40" height="30" fill="rgb(152,213,157)" opacity="0.55"/>
<rect x="7" y="25" width="40" height="30" fill="rgb(134,240,77)" opacity="0.55"/>
<rect x="30" y="127" width="40" height="30" fill="rgb(162,202,27)" opacity="0.55"/>
<rect x="112" y="13" width="40" height="30" fill="rgb(209,102,131)" opacity="0.55"/>
<rect x="184" y="146" width="40" height="30" fill="rgb(63,12,101)" opacity="0.55"/>
<rect x="59" y="155" width="40" height="30" fill="rgb(35,161,134)" opacity="0.55"/>
<rect x="69" y="158" width="40" height="30" fill="rgb(21,66,206)" opacity="0.55"/>
<rect x="258" y="29" width="40" height="30" fill="rgb(196,135,125)" opacity="0.55"/>
<rect x="196" y="91" width="40" height="30" fill="rgb(103,34,75)" opacity="0.55"/>
<rect x="101" y="97" width="40" height="30" fill="rgb(99,176,115)" opacity="0.55"/>
<rect x="263" y="147" width="40" height="30" fill="rgb(133,161,100)" opacity="0.55"/>
<rect x="96" y="153" width="40" height="30" fill="rgb(203,174,231)" opacity="0.55"/>
<rect x="143" y="202" width="40" height="30" fill="rgb(108,29,71)" opacity="0.55"/>
<rect x="105" y="155" width="40" height="30" fill="rgb(122,35,243)" opacity="0.55"/>
<rect x="78" y="104" width="40" height="30" fill="rgb(4,135,55)" opacity="0.55"/>
<rect x="277" y="115" width="40" height="30" fill="rgb(93,157,13)" opacity="0.55"/>
<rect x="18" y="110" width="40" height="30" fill="rgb(251,3,194)" opacity="0.55"/>
<rect x="27" y="196" width="40" height="30" fill="rgb(83,5,43)" opacity="0.55"/>
<rect x="34" y="29" width="40" height="30" fill="rgb(71,211,115)" opacity="0.55"/>
<rect x="275" y="18" width="40" height="30" fill="rgb(10,127,143)" opacity="0.55"/>
<rect x="24" y="48" width="40" height="30" fill="rgb(100,206,221)" opacity="0.55"/>
<rect x="232" y="58" width="40" height="30" fill="rgb(207,128,206)" opacity="0.55"/>
<rect x="193" y="82" width="40" height="30" fill="rgb(104,64,85)" opacity="0.55"/>
<rect x="32" y="73" width="40" height="30" fill="rgb(102,8,132)" opacity="0.55"/>
<rect x="39" y="69" width="40" height="30" fill="rgb(220,165,29)" opacity="0.55"/>
<rect x="32" y="150" width="40" height="30" fill="rgb(180,83,41)" opacity="0.55"/>
<rect x="50" y="102" width="40" height="30" fill="rgb(180,208,108)" opacity="0.55"/>
<rect x="7" y="29" width="40" height="30" fill="rgb(23,240,82)" opacity="0.55"/>
<rect x="52" y="76" width="40" height="30" fill="rgb(132,18,21)" opacity="0.55"/>
<rect x="10" y="23" width="40" height="30" fill="rgb(76,120,145)" opacity="0.55"/>
<rect x="113" y="103" width="40" height="30" fill="rgb(107,16,194)" opacity="0.55"/>
<rect x="154" y="86" width="40" height="30" fill="rgb(22,77,138)" opacity="0.55"/>
<rect x="25" y="133" width="40" height="30" fill="rgb(100,178,193)" opacity="0.55"/>
<rect x="203" y="28" width="40" height="30" fill="rgb(50,214,90)" opacity="0.55"/>
<rect x="62" y="173" width="40" height="30" fill="rgb(190,58,211)" opacity="0.55"/>
<rect x="136" y="140" width="40" height="30" fill="rgb(223,205,138)" opacity="0.55"/>
<rect x="275" y="193" width="40" height="30" fill="rgb(101,204,49)" opacity="0.55"/>
<rect x="88" y="143" width="40" height="30" fill="rgb(17,57,157)" opacity="0.55"/>
<rect x="214" y="89" width="40" height="30" fill="rgb(186,174,102)" opacity="0.55"/>
<rect x="93" y="209" width="40" height="30" fill="rgb(189,108,41)" opacity="0.55"/>
<rect x="22" y="113" width="40" height="30" fill="rgb(35,123,248)" opacity="0.55"/>
<rect x="246" y="164" width="40" height="30" fill="rgb(124,245,73)" opacity="0.55"/>
<rect x="35" y="197" width="40" height="30" fill="rgb(233,143,241)" opacity="0.55"/>
<rect x="277" y="104" width="40" height="30" fill="rgb(4,245,100)" opacity="0.55"/>
<rect x="32" y="165" width="40" height="30" fill="rgb(127,97,89)" opacity="0.55"/>
<rect x="265" y="122" width="40" height="30" fill="rgb(154,150,110)" opacity="0.55"/>
<rect x="278" y="165" width="40" height="30" fill="rgb(86,141,52)" opacity="0.55"/>
<rect x="171" y="105" width="40" height="30" fill="rgb(53,240,104)" opacity="0.55"/>
<rect x="39" y="77" width="40" height="30" fill="rgb(49,229,130)" opacity="0.55"/>
<rect x="166" y="63" width="40" height="30" fill="rgb(240,223,109)" opacity="0.55"/>
<rect x="166" y="153" width="40" height="30" fill="rgb(127,64,79)" opacity="0.55"/>
<rect x="258" y="194" width="40" height="30" fill="rgb(155,29,212)" opacity="0.55"/>
<rect x="155" y="111" width="40" height="30" fill="rgb(157,217,253)" opacity="0.55"/>
<rect x="92" y="48" width="40" height="30" fill="rgb(29,234,31)" opacity="0.55"/>
<rect x="90" y="123" width="40" height="30" fill="rgb(97,218,51)" opacity="0.55"/>
<rect x="18" y="62" width="40" height="30" fill="rgb(134,90,50)" opacity="0.55"/>
<rect x="204" y="208" width="40" height="30" fill="rgb(123,33,102)" opacity="0.55"/>
<rect x="69" y="202" width="40" height="30" fill="rgb(248,192,170)" opacity="0.55"/>
<rect x="184" y="185" width="40" height="30" fill="rgb(44,188,159)" opacity="0.55"/>
<rect x="237" y="39" width="40" height="30" fill="rgb(111,163,171)" opacity="0.55"/>
<rect x="89" y="24" width="40" height="30" fill="rgb(220,160,136)" opacity="0.55"/>
<rect x="241" y="74" width="40" height="30" fill="rgb(126,124,109)" opacity="0.55"/>
<rect x="57" y="174" width="40" height="30" fill="rgb(133,87,170)" opacity="0.55"/>
<rect x="194" y="171" width="40" height="30" fill="rgb(124,182,103)" opacity="0.55"/>
<rect x="168" y="40" width="40" height="30" fill="rgb(136,39,220)" opacity="0.55"/>
<rect x="79" y="10" width="40" height="30" fill="rgb(72,148,89)" opacity="0.55"/>
<rect x="189" y="57" width="40" height="30" fill="rgb(220,251,61)" opacity="0.55"/>
<rect x="242" y="38" width="40" height="30" fill="rgb(91,48,74)" opacity="0.55"/>
<rect x="76" y="207" width="40" height="30" fill="rgb(12,170,188)" opacity="0.55"/>
<rect x="250" y="147" width="40" height="30" fill="rgb(209,45,93)" opacity="0.55"/>
<rect x="235" y="62" width="40" height="30" fill="rgb(29,186,65)" opacity="0.55"/>
<rect x="260" y="114" width="40" height="30" fill="rgb(251,217,46)" opacity="0.55"/>
<rect x="97" y="175" width="40" height="30" fill="rgb(109,10,159)" opacity="0.55"/>
<rect x="278" y="122" width="40" height="30" fill="rgb(24,192,205)" opacity="0.55"/>
<rect x="34" y="160" width="40" height="30" fill="rgb(53,159,247)" opacity="0.55"/>
<rect x="272" y="15" width="40" height="30" fill="rgb(147,58,135)" opacity="0.55"/>
<rect x="145" y="52" width="40" height="30" fill="rgb(35,57,42)" opacity="0.55"/>
<rect x="179" y="24" width="40" height="30" fill="rgb(24,121,206)" opacity="0.55"/>
<rect x="267" y="10" width="40" height="30" fill="rgb(217,145,134)" opacity="0.55"/>
<rect x="111" y="123" width="40" height="30" fill="rgb(178,192,252)" opacity="0.55"/>
<rect x="71" y="25" width="40" height="30" fill="rgb(226,225,131)" opacity="0.55"/>
<rect x="186" y="103" width="40" height="30" fill="rgb(133,4,220)" opacity="0.55"/>
<rect x="233" y="8" width="40" height="30" fill="rgb(26,186,99)" opacity="0.55"/>
<rect x="23" y="190" width="40" height="30" fill="rgb(11,250,159)" opacity="0.55"/>
<rect x="58" y="127" width="40" height="30" fill="rgb(214,35,194)" opacity="0.55"/>
<rect x="53" y="103" width="40" height="30" fill="rgb(84,34,46)" opacity="0.55"/>
<rect x="199" y="61" width="40" height="30" fill="rgb(201,155,250)" opacity="0.55"/>
<rect x="95" y="24" width="40" height="30" fill="rgb(199,149,149)" opacity="0.55"/>
<rect x="232" y="41" width="40" height="30" fill="rgb(159,42,55)" opacity="0.55"/>
<rect x="70" y="137" width="40" height="30" fill="rgb(217,62,58)" opacity="0.55"/>
<rect x="254" y="113" width="40" height="30" fill="rgb(179,208,141)" opacity="0.55"/>
<rect x="68" y="39" width="40" height="30" fill="rgb(149,195,130)" opacity="0.55"/>
<rect x="24" y="138" width="40" height="30" fill="rgb(75,125,184)" opacity="0.55"/>
<rect x="192" y="37" width="40" height="30" fill="rgb(126,48,220)" opacity="0.55"/>
<rect x="39" y="68" width="40" height="30" fill="rgb(220,82,116)" opacity="0.55"/>
<rect x="139" y="100" width="40" height="30" fill="rgb(37,242,214)" opacity="0.55"/>
<rect x="197" y="88" width="40" height="30" fill="rgb(87,205,196)" opacity="0.55"/>
<rect x="112" y="21" width="40" height="30" fill="rgb(170,104,125)" opacity="0.55"/>
<rect x="133" y="148" width="40" height="30" fill="rgb(62,3,112)" opacity="0.55"/>
<rect x="217" y="121" width="40" height="30" fill="rgb(49,182,61)" opacity="0.55"/>
<rect x="72" y="196" width="40" height="30" fill="rgb(29,203,189)" opacity="0.55"/>
<rect x="181" y="54" width="40" height="30" fill="rgb(218,23,1)" opacity="0.55"/>
<rect x="89" y="77" width="40" height="30" fill="rgb(46,198,188)" opacity="0.55"/>
<rect x="195" y="76" width="40" height="30" fill="rgb(80,191,197)" opacity="0.55"/>
<rect x="148" y="210" width="40" height="30" fill="rgb(117,146,113)" opacity="0.55"/>
<rect x="119" y="17" width="40" height="30" fill="rgb(69,30,200)" opacity="0.55"/>
</svg>